G04 Layer: BottomSilkscreenLayer*
G04 EasyEDA v6.5.54, 2026-04-13 20:30:14*
G04 40f13ac1a60949c8970167495b29098c,81a6330f3d4149d2af66a0b9843494eb,10*
G04 Gerber Generator version 0.2*
G04 Scale: 100 percent, Rotated: No, Reflected: No *
G04 Dimensions in millimeters *
G04 leading zeros omitted , absolute positions ,4 integer and 5 decimal *
%FSLAX45Y45*%
%MOMM*%

%ADD10C,0.0195*%

%LPD*%
G36*
X2183638Y1484122D02*
G01*
X2178100Y1483258D01*
X2172563Y1480312D01*
X2166975Y1474927D01*
X2161286Y1466596D01*
X2145588Y1441958D01*
X2124964Y1408430D01*
X2133854Y1401572D01*
X2150211Y1416608D01*
X2166924Y1431340D01*
X2184146Y1446022D01*
X2191359Y1453134D01*
X2195779Y1459026D01*
X2198014Y1464106D01*
X2198624Y1468628D01*
X2197354Y1475536D01*
X2194001Y1480362D01*
X2189175Y1483207D01*
G37*
G36*
X1948942Y1454150D02*
G01*
X1942084Y1453997D01*
X1935429Y1453438D01*
X1929028Y1452575D01*
X1922881Y1451406D01*
X1916887Y1449933D01*
X1911146Y1448155D01*
X1905558Y1446072D01*
X1900174Y1443786D01*
X1894992Y1441196D01*
X1885086Y1435303D01*
X1880362Y1432052D01*
X1883156Y1377696D01*
X1904746Y1377696D01*
X1915414Y1427480D01*
X1923542Y1431340D01*
X1931670Y1433982D01*
X1940204Y1435404D01*
X1949450Y1435862D01*
X1955647Y1435658D01*
X1961591Y1435100D01*
X1967280Y1434084D01*
X1972716Y1432763D01*
X1977847Y1430985D01*
X1982673Y1428851D01*
X1987143Y1426362D01*
X1991258Y1423466D01*
X1994916Y1420215D01*
X1998218Y1416608D01*
X2001062Y1412595D01*
X2003450Y1408226D01*
X2005330Y1403502D01*
X2006752Y1398371D01*
X2007565Y1392936D01*
X2007870Y1387094D01*
X2007514Y1380642D01*
X2006447Y1374597D01*
X2004720Y1369009D01*
X2002282Y1363726D01*
X1999183Y1358849D01*
X1995474Y1354277D01*
X1991156Y1350060D01*
X1986178Y1346098D01*
X1980641Y1342390D01*
X1974545Y1338986D01*
X1967839Y1335735D01*
X1935581Y1322832D01*
X1928012Y1319479D01*
X1920951Y1316075D01*
X1914398Y1312621D01*
X1902714Y1305560D01*
X1897583Y1301902D01*
X1892858Y1298143D01*
X1888591Y1294282D01*
X1884730Y1290320D01*
X1881327Y1286205D01*
X1878279Y1281988D01*
X1875637Y1277569D01*
X1873402Y1272997D01*
X1871522Y1268272D01*
X1869998Y1263345D01*
X1868881Y1258214D01*
X1868068Y1252880D01*
X1867560Y1247343D01*
X1867407Y1241552D01*
X1867611Y1235456D01*
X1868220Y1229563D01*
X1869236Y1223924D01*
X1870659Y1218488D01*
X1872437Y1213256D01*
X1874621Y1208278D01*
X1877161Y1203502D01*
X1880057Y1198981D01*
X1883257Y1194714D01*
X1886813Y1190650D01*
X1890674Y1186891D01*
X1894890Y1183335D01*
X1899361Y1180084D01*
X1904136Y1177086D01*
X1909216Y1174343D01*
X1914550Y1171854D01*
X1920138Y1169619D01*
X1932127Y1166063D01*
X1938477Y1164742D01*
X1945030Y1163675D01*
X1951786Y1162913D01*
X1958797Y1162456D01*
X1965960Y1162304D01*
X1973783Y1162507D01*
X1981555Y1163116D01*
X1989226Y1164031D01*
X1996744Y1165301D01*
X2004060Y1166926D01*
X2017979Y1170889D01*
X2024532Y1173276D01*
X2030730Y1175816D01*
X2036572Y1178509D01*
X2042007Y1181404D01*
X2046986Y1184402D01*
X2044192Y1243076D01*
X2023110Y1243076D01*
X2012442Y1191006D01*
X2007412Y1188466D01*
X2002383Y1186281D01*
X1997303Y1184452D01*
X1992071Y1183030D01*
X1986686Y1181963D01*
X1980996Y1181201D01*
X1974951Y1180744D01*
X1968500Y1180592D01*
X1961083Y1180795D01*
X1954022Y1181455D01*
X1947367Y1182522D01*
X1941068Y1183995D01*
X1935175Y1185875D01*
X1929688Y1188161D01*
X1924659Y1190853D01*
X1920087Y1193952D01*
X1915972Y1197457D01*
X1912366Y1201318D01*
X1909267Y1205636D01*
X1906676Y1210259D01*
X1904644Y1215288D01*
X1903171Y1220724D01*
X1902256Y1226515D01*
X1901952Y1232662D01*
X1902256Y1239164D01*
X1903272Y1245158D01*
X1904898Y1250645D01*
X1907286Y1255725D01*
X1910384Y1260398D01*
X1914194Y1264767D01*
X1918817Y1268933D01*
X1924253Y1272844D01*
X1930450Y1276654D01*
X1937512Y1280363D01*
X1945436Y1284071D01*
X1970024Y1294130D01*
X1982622Y1299616D01*
X1994204Y1305509D01*
X2004771Y1312011D01*
X2009597Y1315415D01*
X2014169Y1319022D01*
X2018436Y1322832D01*
X2022398Y1326794D01*
X2026005Y1330909D01*
X2029256Y1335227D01*
X2032203Y1339748D01*
X2034793Y1344472D01*
X2036978Y1349400D01*
X2038807Y1354582D01*
X2040280Y1360017D01*
X2041296Y1365656D01*
X2041956Y1371549D01*
X2042160Y1377696D01*
X2041956Y1383639D01*
X2041347Y1389329D01*
X2040331Y1394815D01*
X2038908Y1400098D01*
X2037130Y1405178D01*
X2035048Y1410004D01*
X2032558Y1414576D01*
X2029714Y1418945D01*
X2026615Y1423111D01*
X2023160Y1426972D01*
X2019401Y1430629D01*
X2015388Y1434033D01*
X2011070Y1437182D01*
X2006498Y1440078D01*
X2001672Y1442669D01*
X1996592Y1445056D01*
X1991309Y1447139D01*
X1985772Y1448968D01*
X1980082Y1450543D01*
X1974189Y1451813D01*
X1968093Y1452829D01*
X1961896Y1453591D01*
X1955495Y1453997D01*
G37*
G36*
X1637030Y1454150D02*
G01*
X1630121Y1453997D01*
X1623415Y1453438D01*
X1617014Y1452575D01*
X1610766Y1451406D01*
X1604772Y1449933D01*
X1599031Y1448155D01*
X1593443Y1446072D01*
X1588109Y1443786D01*
X1582928Y1441196D01*
X1577898Y1438351D01*
X1568450Y1432052D01*
X1571244Y1377696D01*
X1592834Y1377696D01*
X1603502Y1427480D01*
X1611477Y1431340D01*
X1619554Y1433982D01*
X1628139Y1435404D01*
X1637538Y1435862D01*
X1643684Y1435658D01*
X1649577Y1435100D01*
X1655267Y1434084D01*
X1660652Y1432763D01*
X1665782Y1430985D01*
X1670557Y1428851D01*
X1675028Y1426362D01*
X1679092Y1423466D01*
X1682800Y1420215D01*
X1686052Y1416608D01*
X1688896Y1412595D01*
X1691284Y1408226D01*
X1693164Y1403502D01*
X1694586Y1398371D01*
X1695399Y1392936D01*
X1695704Y1387094D01*
X1695348Y1380642D01*
X1694281Y1374597D01*
X1692554Y1369009D01*
X1690166Y1363726D01*
X1687118Y1358849D01*
X1683410Y1354277D01*
X1679092Y1350060D01*
X1674164Y1346098D01*
X1668576Y1342390D01*
X1662430Y1338986D01*
X1655724Y1335735D01*
X1631696Y1326134D01*
X1616049Y1319479D01*
X1608988Y1316075D01*
X1602435Y1312621D01*
X1596339Y1309116D01*
X1590700Y1305560D01*
X1585569Y1301902D01*
X1580845Y1298143D01*
X1576578Y1294282D01*
X1572717Y1290320D01*
X1569313Y1286205D01*
X1566316Y1281988D01*
X1563674Y1277569D01*
X1561439Y1272997D01*
X1559560Y1268272D01*
X1558086Y1263345D01*
X1556918Y1258214D01*
X1556105Y1252880D01*
X1555648Y1247343D01*
X1555496Y1241552D01*
X1555699Y1235456D01*
X1556308Y1229563D01*
X1557324Y1223924D01*
X1558747Y1218488D01*
X1560525Y1213256D01*
X1562709Y1208278D01*
X1565249Y1203502D01*
X1568094Y1198981D01*
X1571345Y1194714D01*
X1574901Y1190650D01*
X1578762Y1186891D01*
X1582928Y1183335D01*
X1587398Y1180084D01*
X1592173Y1177086D01*
X1597253Y1174343D01*
X1602587Y1171854D01*
X1608175Y1169619D01*
X1620062Y1166063D01*
X1626412Y1164742D01*
X1632966Y1163675D01*
X1639671Y1162913D01*
X1646631Y1162456D01*
X1653793Y1162304D01*
X1661718Y1162507D01*
X1669491Y1163116D01*
X1677212Y1164031D01*
X1684731Y1165301D01*
X1692097Y1166926D01*
X1699209Y1168806D01*
X1706067Y1170889D01*
X1718818Y1175816D01*
X1724660Y1178509D01*
X1730095Y1181404D01*
X1735074Y1184402D01*
X1732280Y1243076D01*
X1710943Y1243076D01*
X1700275Y1191006D01*
X1695246Y1188466D01*
X1690268Y1186281D01*
X1685239Y1184452D01*
X1680057Y1183030D01*
X1674672Y1181963D01*
X1669034Y1181201D01*
X1663039Y1180744D01*
X1656588Y1180592D01*
X1649171Y1180795D01*
X1642110Y1181455D01*
X1635404Y1182522D01*
X1629105Y1183995D01*
X1623212Y1185875D01*
X1617726Y1188161D01*
X1612646Y1190853D01*
X1608023Y1193952D01*
X1603908Y1197457D01*
X1600250Y1201318D01*
X1597152Y1205636D01*
X1594561Y1210259D01*
X1592478Y1215288D01*
X1591005Y1220724D01*
X1590090Y1226515D01*
X1589786Y1232662D01*
X1590090Y1239164D01*
X1591106Y1245158D01*
X1592732Y1250645D01*
X1595120Y1255725D01*
X1598218Y1260398D01*
X1602079Y1264767D01*
X1606702Y1268933D01*
X1612138Y1272844D01*
X1618386Y1276654D01*
X1625498Y1280363D01*
X1633474Y1284071D01*
X1658112Y1294130D01*
X1670659Y1299616D01*
X1682242Y1305509D01*
X1692808Y1312011D01*
X1697634Y1315415D01*
X1702155Y1319022D01*
X1706422Y1322832D01*
X1710334Y1326794D01*
X1713941Y1330909D01*
X1717192Y1335227D01*
X1720138Y1339748D01*
X1722678Y1344472D01*
X1724863Y1349400D01*
X1726692Y1354582D01*
X1728114Y1360017D01*
X1729130Y1365656D01*
X1729790Y1371549D01*
X1729993Y1377696D01*
X1729790Y1383639D01*
X1729181Y1389329D01*
X1728165Y1394815D01*
X1726742Y1400098D01*
X1725015Y1405178D01*
X1722882Y1410004D01*
X1720392Y1414576D01*
X1717598Y1418945D01*
X1714449Y1423111D01*
X1710994Y1426972D01*
X1707235Y1430629D01*
X1703222Y1434033D01*
X1698904Y1437182D01*
X1694383Y1440078D01*
X1689557Y1442669D01*
X1684477Y1445056D01*
X1679244Y1447139D01*
X1673758Y1448968D01*
X1668068Y1450543D01*
X1662175Y1451813D01*
X1656130Y1452829D01*
X1649882Y1453591D01*
X1643532Y1453997D01*
G37*
G36*
X897890Y1454150D02*
G01*
X885596Y1453743D01*
X872744Y1452372D01*
X859485Y1449882D01*
X852728Y1448104D01*
X845870Y1446022D01*
X839012Y1443532D01*
X832154Y1440637D01*
X825246Y1437335D01*
X818388Y1433576D01*
X817625Y1372362D01*
X840486Y1372362D01*
X850646Y1425448D01*
X856081Y1427988D01*
X861466Y1430172D01*
X866851Y1432001D01*
X872185Y1433423D01*
X877519Y1434490D01*
X882802Y1435252D01*
X888085Y1435709D01*
X893318Y1435862D01*
X903986Y1435354D01*
X909167Y1434693D01*
X914298Y1433779D01*
X919327Y1432610D01*
X929081Y1429562D01*
X933805Y1427632D01*
X938377Y1425448D01*
X942848Y1423009D01*
X951382Y1417421D01*
X959307Y1410817D01*
X963066Y1407160D01*
X966622Y1403248D01*
X973277Y1394714D01*
X976325Y1390091D01*
X979169Y1385214D01*
X981862Y1380083D01*
X984351Y1374749D01*
X988669Y1363319D01*
X990498Y1357274D01*
X993495Y1344422D01*
X995527Y1330706D01*
X996187Y1323492D01*
X996696Y1308354D01*
X996594Y1300632D01*
X995629Y1285900D01*
X993698Y1272082D01*
X992428Y1265529D01*
X989228Y1253134D01*
X987298Y1247292D01*
X985164Y1241704D01*
X982827Y1236319D01*
X980287Y1231188D01*
X977544Y1226312D01*
X974648Y1221689D01*
X971550Y1217269D01*
X964793Y1209243D01*
X961186Y1205585D01*
X957376Y1202131D01*
X953414Y1198981D01*
X945032Y1193393D01*
X940612Y1190955D01*
X931316Y1186891D01*
X926490Y1185214D01*
X921512Y1183792D01*
X911199Y1181760D01*
X905865Y1181100D01*
X894842Y1180592D01*
X883056Y1181150D01*
X877062Y1181862D01*
X871016Y1182928D01*
X864971Y1184351D01*
X858926Y1186180D01*
X852881Y1188364D01*
X846836Y1191006D01*
X836676Y1243838D01*
X813816Y1243838D01*
X814578Y1182370D01*
X821080Y1179017D01*
X827684Y1176020D01*
X834339Y1173327D01*
X841095Y1170940D01*
X847902Y1168857D01*
X854811Y1167079D01*
X861771Y1165606D01*
X868832Y1164386D01*
X875995Y1163472D01*
X883208Y1162812D01*
X897890Y1162304D01*
X904138Y1162405D01*
X916330Y1163269D01*
X928116Y1164996D01*
X939444Y1167587D01*
X950264Y1170940D01*
X960628Y1175054D01*
X970432Y1179982D01*
X979678Y1185621D01*
X988364Y1191971D01*
X996442Y1198981D01*
X1000302Y1202740D01*
X1007465Y1210767D01*
X1013968Y1219403D01*
X1019759Y1228648D01*
X1024890Y1238504D01*
X1029309Y1248867D01*
X1032967Y1259789D01*
X1035812Y1271219D01*
X1037945Y1283157D01*
X1039215Y1295552D01*
X1039621Y1308354D01*
X1039520Y1314704D01*
X1038606Y1327048D01*
X1036878Y1339037D01*
X1035710Y1344879D01*
X1032713Y1356207D01*
X1028953Y1367028D01*
X1024432Y1377391D01*
X1019149Y1387195D01*
X1013206Y1396441D01*
X1010005Y1400860D01*
X1003046Y1409192D01*
X995476Y1416964D01*
X987298Y1424025D01*
X978560Y1430477D01*
X969314Y1436166D01*
X959510Y1441145D01*
X949248Y1445361D01*
X938530Y1448765D01*
X932992Y1450187D01*
X921664Y1452372D01*
X909980Y1453692D01*
X903986Y1454048D01*
G37*
G36*
X3156712Y1449578D02*
G01*
X3097810Y1277366D01*
X3136138Y1277366D01*
X3179572Y1406906D01*
X3222244Y1277366D01*
X3097810Y1277366D01*
X3066796Y1186688D01*
X3034030Y1182878D01*
X3034030Y1168400D01*
X3147568Y1168400D01*
X3147568Y1182878D01*
X3106420Y1187704D01*
X3130804Y1260856D01*
X3227578Y1260856D01*
X3251708Y1188212D01*
X3210814Y1182878D01*
X3210814Y1168400D01*
X3303778Y1168400D01*
X3303778Y1182878D01*
X3269996Y1188212D01*
X3181096Y1449578D01*
G37*
G36*
X1171448Y1449578D02*
G01*
X1112546Y1277366D01*
X1150874Y1277366D01*
X1194308Y1406906D01*
X1236980Y1277366D01*
X1112546Y1277366D01*
X1081532Y1186688D01*
X1048766Y1182878D01*
X1048766Y1168400D01*
X1162304Y1168400D01*
X1162304Y1182878D01*
X1121156Y1187704D01*
X1145540Y1260856D01*
X1242314Y1260856D01*
X1266444Y1188212D01*
X1225550Y1182878D01*
X1225550Y1168400D01*
X1318514Y1168400D01*
X1318514Y1182878D01*
X1284732Y1188212D01*
X1195832Y1449578D01*
G37*
G36*
X3325876Y1447546D02*
G01*
X3325876Y1433322D01*
X3364992Y1429004D01*
X3365449Y1401673D01*
X3365703Y1367028D01*
X3365703Y1256233D01*
X3365449Y1214831D01*
X3364992Y1187196D01*
X3326384Y1182878D01*
X3326384Y1168400D01*
X3439922Y1168400D01*
X3439922Y1182878D01*
X3403854Y1187196D01*
X3403396Y1214323D01*
X3402584Y1408430D01*
X3496564Y1168400D01*
X3514598Y1168400D01*
X3612134Y1407668D01*
X3609848Y1320546D01*
X3609848Y1188212D01*
X3573526Y1182878D01*
X3573526Y1168400D01*
X3666998Y1168400D01*
X3666998Y1182878D01*
X3629406Y1188212D01*
X3628898Y1428496D01*
X3666998Y1433322D01*
X3666998Y1447546D01*
X3590798Y1447546D01*
X3496564Y1215898D01*
X3406394Y1447546D01*
G37*
G36*
X2764028Y1447546D02*
G01*
X2764028Y1433322D01*
X2803652Y1428242D01*
X2874518Y1342136D01*
X2787904Y1186688D01*
X2755646Y1182878D01*
X2755646Y1168400D01*
X2862580Y1168400D01*
X2862580Y1182878D01*
X2828036Y1187196D01*
X2896870Y1315212D01*
X2938526Y1265174D01*
X2938424Y1227937D01*
X2937764Y1187450D01*
X2898394Y1182878D01*
X2898394Y1168400D01*
X3014980Y1168400D01*
X3014980Y1182878D01*
X2976118Y1187196D01*
X2975559Y1228293D01*
X2975406Y1366824D01*
X2976118Y1429004D01*
X3014980Y1433322D01*
X3014980Y1447546D01*
X2898140Y1447546D01*
X2898140Y1433322D01*
X2937764Y1429004D01*
X2938221Y1401673D01*
X2938475Y1367028D01*
X2938526Y1289558D01*
X2826512Y1427480D01*
X2859786Y1433322D01*
X2859786Y1447546D01*
G37*
G36*
X2529586Y1447546D02*
G01*
X2527300Y1374140D01*
X2547874Y1374140D01*
X2559050Y1429512D01*
X2658110Y1429512D01*
X2658567Y1402232D01*
X2658821Y1367840D01*
X2658872Y1319022D01*
X2595880Y1319022D01*
X2589784Y1360170D01*
X2572766Y1360170D01*
X2572766Y1261872D01*
X2589784Y1261872D01*
X2595626Y1302004D01*
X2658872Y1302004D01*
X2658567Y1214577D01*
X2658110Y1186688D01*
X2550922Y1186688D01*
X2540000Y1242822D01*
X2519426Y1242822D01*
X2521712Y1168400D01*
X2736596Y1168400D01*
X2736596Y1182878D01*
X2697734Y1187196D01*
X2697175Y1228293D01*
X2697022Y1366824D01*
X2697734Y1429004D01*
X2736596Y1433322D01*
X2736596Y1447546D01*
G37*
G36*
X2368042Y1447546D02*
G01*
X2360269Y1447393D01*
X2352802Y1446987D01*
X2338628Y1445361D01*
X2331974Y1444091D01*
X2325624Y1442618D01*
X2319578Y1440840D01*
X2313838Y1438859D01*
X2308402Y1436573D01*
X2303322Y1434084D01*
X2298496Y1431290D01*
X2294026Y1428292D01*
X2289911Y1425041D01*
X2286101Y1421587D01*
X2282596Y1417878D01*
X2279497Y1413916D01*
X2276703Y1409750D01*
X2274265Y1405331D01*
X2272233Y1400708D01*
X2270506Y1395882D01*
X2269185Y1390802D01*
X2268220Y1385519D01*
X2267661Y1380083D01*
X2267476Y1374902D01*
X2306828Y1374902D01*
X2307082Y1381455D01*
X2307742Y1387602D01*
X2308961Y1393393D01*
X2310587Y1398828D01*
X2312771Y1403858D01*
X2315413Y1408480D01*
X2318562Y1412697D01*
X2322220Y1416507D01*
X2326335Y1419910D01*
X2331059Y1422908D01*
X2336241Y1425448D01*
X2341981Y1427530D01*
X2348230Y1429156D01*
X2355037Y1430324D01*
X2362403Y1431036D01*
X2370328Y1431290D01*
X2406650Y1431290D01*
X2407310Y1380896D01*
X2407412Y1314704D01*
X2373376Y1314704D01*
X2365298Y1315008D01*
X2357729Y1315872D01*
X2350719Y1317294D01*
X2344216Y1319225D01*
X2338222Y1321663D01*
X2332786Y1324559D01*
X2327859Y1327962D01*
X2323439Y1331772D01*
X2319528Y1335989D01*
X2316175Y1340561D01*
X2313330Y1345539D01*
X2310993Y1350822D01*
X2309164Y1356410D01*
X2307844Y1362303D01*
X2307082Y1368501D01*
X2306828Y1374902D01*
X2267476Y1374902D01*
X2267661Y1369517D01*
X2268169Y1364691D01*
X2269083Y1359966D01*
X2270353Y1355293D01*
X2271979Y1350772D01*
X2273960Y1346352D01*
X2276297Y1342034D01*
X2278989Y1337868D01*
X2282088Y1333906D01*
X2285492Y1330096D01*
X2289251Y1326438D01*
X2293416Y1322984D01*
X2297887Y1319733D01*
X2302764Y1316736D01*
X2307945Y1313942D01*
X2313533Y1311402D01*
X2319426Y1309166D01*
X2325725Y1307134D01*
X2332329Y1305458D01*
X2339340Y1304036D01*
X2332990Y1302410D01*
X2327148Y1300327D01*
X2321712Y1297838D01*
X2316784Y1294942D01*
X2312212Y1291488D01*
X2308047Y1287576D01*
X2304186Y1283055D01*
X2300681Y1278026D01*
X2297480Y1272336D01*
X2294534Y1266037D01*
X2291791Y1259128D01*
X2289302Y1251458D01*
X2269744Y1185926D01*
X2237486Y1182878D01*
X2237486Y1168400D01*
X2243886Y1166571D01*
X2251354Y1165301D01*
X2259787Y1164590D01*
X2269236Y1164336D01*
X2278227Y1164691D01*
X2286000Y1165758D01*
X2292654Y1167638D01*
X2298242Y1170330D01*
X2302814Y1173988D01*
X2306472Y1178610D01*
X2309317Y1184249D01*
X2311400Y1191006D01*
X2328672Y1257046D01*
X2330907Y1265021D01*
X2333396Y1271930D01*
X2336190Y1277924D01*
X2339390Y1282954D01*
X2343048Y1287170D01*
X2347163Y1290624D01*
X2351836Y1293368D01*
X2357120Y1295450D01*
X2363063Y1296974D01*
X2369718Y1297990D01*
X2377084Y1298549D01*
X2407412Y1298702D01*
X2407310Y1241907D01*
X2406650Y1187450D01*
X2367788Y1182878D01*
X2367788Y1168400D01*
X2485136Y1168400D01*
X2485136Y1182878D01*
X2446274Y1187196D01*
X2445715Y1228293D01*
X2445562Y1366824D01*
X2446274Y1429004D01*
X2485136Y1433322D01*
X2485136Y1447546D01*
G37*
G36*
X1410716Y1447546D02*
G01*
X1403350Y1447444D01*
X1389380Y1446428D01*
X1376527Y1444498D01*
X1370482Y1443177D01*
X1364742Y1441602D01*
X1359255Y1439824D01*
X1354023Y1437843D01*
X1349095Y1435658D01*
X1344422Y1433271D01*
X1340002Y1430629D01*
X1335836Y1427835D01*
X1331976Y1424838D01*
X1328369Y1421638D01*
X1325016Y1418285D01*
X1321968Y1414729D01*
X1319174Y1410970D01*
X1316634Y1407109D01*
X1314348Y1403045D01*
X1310589Y1394409D01*
X1307947Y1385163D01*
X1306322Y1375359D01*
X1305814Y1364996D01*
X1345184Y1364996D01*
X1345336Y1371193D01*
X1345844Y1377137D01*
X1346708Y1382826D01*
X1347927Y1388160D01*
X1349502Y1393240D01*
X1351432Y1398016D01*
X1353667Y1402486D01*
X1356309Y1406652D01*
X1359357Y1410512D01*
X1362710Y1414068D01*
X1366469Y1417269D01*
X1370584Y1420164D01*
X1375105Y1422755D01*
X1379982Y1424990D01*
X1385265Y1426921D01*
X1390904Y1428445D01*
X1397000Y1429715D01*
X1403451Y1430578D01*
X1410309Y1431086D01*
X1417574Y1431290D01*
X1444244Y1431290D01*
X1444701Y1403299D01*
X1444955Y1360830D01*
X1445006Y1296670D01*
X1418336Y1296670D01*
X1410766Y1296873D01*
X1403654Y1297482D01*
X1396949Y1298498D01*
X1390751Y1299921D01*
X1384960Y1301648D01*
X1379575Y1303782D01*
X1374648Y1306271D01*
X1370076Y1309065D01*
X1365961Y1312214D01*
X1362252Y1315669D01*
X1358900Y1319428D01*
X1355953Y1323492D01*
X1353362Y1327810D01*
X1351127Y1332433D01*
X1349298Y1337259D01*
X1347774Y1342390D01*
X1346657Y1347724D01*
X1345844Y1353261D01*
X1345336Y1359052D01*
X1345184Y1364996D01*
X1305814Y1364996D01*
X1306322Y1355191D01*
X1306982Y1350365D01*
X1307896Y1345641D01*
X1309065Y1341018D01*
X1310538Y1336497D01*
X1312265Y1332077D01*
X1314297Y1327810D01*
X1316634Y1323644D01*
X1319276Y1319631D01*
X1322171Y1315720D01*
X1325422Y1312011D01*
X1328978Y1308404D01*
X1332839Y1305001D01*
X1337005Y1301800D01*
X1341526Y1298752D01*
X1346352Y1295908D01*
X1351534Y1293266D01*
X1357071Y1290828D01*
X1362913Y1288643D01*
X1369161Y1286662D01*
X1375714Y1284935D01*
X1382674Y1283411D01*
X1389938Y1282192D01*
X1397609Y1281176D01*
X1405686Y1280464D01*
X1414119Y1280058D01*
X1445006Y1279906D01*
X1444904Y1233982D01*
X1444244Y1187450D01*
X1404620Y1182878D01*
X1404620Y1168400D01*
X1522730Y1168400D01*
X1522730Y1182878D01*
X1483868Y1187196D01*
X1483309Y1228293D01*
X1483156Y1366824D01*
X1483868Y1429004D01*
X1522730Y1433322D01*
X1522730Y1447546D01*
G37*
G36*
X570738Y1447546D02*
G01*
X568452Y1374140D01*
X589026Y1374140D01*
X599948Y1429512D01*
X699008Y1429512D01*
X699465Y1402232D01*
X699719Y1367840D01*
X699770Y1319022D01*
X636778Y1319022D01*
X630936Y1360170D01*
X613664Y1360170D01*
X613664Y1261872D01*
X630936Y1261872D01*
X636524Y1302004D01*
X699770Y1302004D01*
X699465Y1214577D01*
X699008Y1186688D01*
X592074Y1186688D01*
X580898Y1242822D01*
X560324Y1242822D01*
X562610Y1168400D01*
X777494Y1168400D01*
X777494Y1182878D01*
X738632Y1187196D01*
X738073Y1228293D01*
X737920Y1366824D01*
X738632Y1429004D01*
X777494Y1433322D01*
X777494Y1447546D01*
G37*
M02*
